<?xml version="1.0" standalone="no"?><!DOCTYPE svg PUBLIC "-//W3C//DTD SVG 1.1//EN" "http://www.w3.org/Graphics/SVG/1.1/DTD/svg11.dtd"><svg t="1659856440812" class="icon" viewBox="0 0 1024 1024" version="1.1" xmlns="http://www.w3.org/2000/svg" p-id="2317" width="128" height="128" xmlns:xlink="http://www.w3.org/1999/xlink"><defs><style type="text/css">@font-face { font-family: feedback-iconfont; src: url("//at.alicdn.com/t/font_1031158_u69w8yhxdu.woff2?t=1630033759944") format("woff2"), url("//at.alicdn.com/t/font_1031158_u69w8yhxdu.woff?t=1630033759944") format("woff"), url("//at.alicdn.com/t/font_1031158_u69w8yhxdu.ttf?t=1630033759944") format("truetype"); }
</style></defs><path d="M512 118.152839c217.514885 0 393.847161 176.332276 393.847161 393.847161 0 217.514885-176.332276 393.847161-393.847161 393.847161-217.514885 0-393.847161-176.332276-393.847161-393.847161C118.152839 294.485115 294.485115 118.152839 512 118.152839z m0 78.770742c-174.011908 0-315.076419 141.064512-315.076419 315.076419S337.988092 827.076419 512 827.076419 827.076419 686.011908 827.076419 512 686.011908 196.923581 512 196.923581z" fill="#4437d9" opacity=.6 p-id="2318"></path><path d="M512 0c21.751488 0 39.384716 17.633228 39.384716 39.384716V118.152839c0 21.750179-17.633228 39.384716-39.384716 39.384716-21.751488 0-39.384716-17.633228-39.384716-39.384716V39.384716C472.615284 17.633228 490.249821 0 512 0zM512 866.461136c21.751488 0 39.384716 17.633228 39.384716 39.384716v78.769432C551.384716 1006.366772 533.750179 1024 512 1024c-21.751488 0-39.384716-17.633228-39.384716-39.384716V905.847161c0-21.750179 17.633228-39.384716 39.384716-39.384716zM1024 512c0 21.751488-17.633228 39.384716-39.384716 39.384716H905.847161c-21.750179 0-39.384716-17.633228-39.384716-39.384716 0-21.751488 17.633228-39.384716 39.384716-39.384716h78.769432C1006.366772 472.615284 1024 490.249821 1024 512zM157.538864 512c0 21.751488-17.633228 39.384716-39.384716 39.384716H39.384716C17.633228 551.384716 0 533.750179 0 512c0-21.751488 17.633228-39.384716 39.384716-39.384716H118.152839c21.750179 0 39.384716 17.633228 39.384716 39.384716zM512 315.076419c108.757442 0 196.923581 88.166138 196.923581 196.923581 0 108.757442-88.166138 196.923581-196.923581 196.923581-108.757442 0-196.923581-88.166138-196.923581-196.923581 0-108.757442 88.166138-196.923581 196.923581-196.923581z m0 78.769433c-65.254465 0-118.152839 52.899683-118.152839 118.154148 0 65.254465 52.898373 118.152839 118.152839 118.152839 65.254465 0 118.152839-52.898373 118.152839-118.152839 0-65.254465-52.898373-118.152839-118.152839-118.152839z" fill="#4437d9" opacity=.6 p-id="2319"></path></svg>