<?xml version="1.0" standalone="no"?><!DOCTYPE svg PUBLIC "-//W3C//DTD SVG 1.1//EN" "http://www.w3.org/Graphics/SVG/1.1/DTD/svg11.dtd"><svg t="1659835635009" class="icon" viewBox="0 0 1024 1024" version="1.1" xmlns="http://www.w3.org/2000/svg" p-id="4994" xmlns:xlink="http://www.w3.org/1999/xlink" width="128" height="128"><defs><style type="text/css">@font-face { font-family: feedback-iconfont; src: url("//at.alicdn.com/t/font_1031158_u69w8yhxdu.woff2?t=1630033759944") format("woff2"), url("//at.alicdn.com/t/font_1031158_u69w8yhxdu.woff?t=1630033759944") format("woff"), url("//at.alicdn.com/t/font_1031158_u69w8yhxdu.ttf?t=1630033759944") format("truetype"); }
</style></defs><path d="M486.86 959.42c-6 0-12.09-0.08-18.08-0.25l-6-0.17 0.33-12 6 0.17c9.84 0.27 19.91 0.32 29.72 0.13l6-0.11 0.22 12-6 0.11c-4.05 0.08-8.13 0.12-12.19 0.12z m56.61-2.42l-1.17-12 6-0.58c9.88-1 19.8-2.18 29.48-3.62l5.94-0.88 1.76 11.87-5.93 0.88c-9.88 1.46-20 2.71-30.08 3.69z m-119.08-0.54l-6-0.64a576.213 576.213 0 0 1-30-4l-5.93-0.94 1.87-11.88 5.93 0.94c9.66 1.53 19.57 2.84 29.45 3.9l6 0.64z m198.9-11.92l-2.81-11.67 5.83-1.4c9.7-2.34 19.33-5 28.61-7.77l5.74-1.74 3.49 11.48-5.74 1.75c-9.5 2.89-19.36 5.57-29.29 8z m-278.61-1.34l-5.82-1.47c-9.92-2.5-19.75-5.3-29.21-8.29l-5.72-1.81 3.63-11.44 5.72 1.81c9.23 2.93 18.82 5.65 28.52 8.1l5.82 1.47z m355.82-23l-4.75-11 5.51-2.38c9.23-4 18.19-8.26 26.63-12.74l5.3-2.81 5.62 10.6-5.3 2.81c-8.72 4.62-18 9-27.49 13.15z m-432.74-2.3l-5.47-2.46c-9.47-4.25-18.66-8.82-27.29-13.59l-5.25-2.9 5.8-10.51 5.25 2.9c8.35 4.61 17.24 9 26.41 13.15l5.47 2.46z m504-36.93l-7.31-9.51 4.76-3.66a220.2 220.2 0 0 0 22-19.22l4.23-4.25 8.51 8.46-4.32 4.21a232.25 232.25 0 0 1-23.15 20.27z m-574.52-3.58l-4.67-3.77a222.09 222.09 0 0 1-22.63-20.9l-4.1-4.38 8.76-8.2 4.1 4.38a209.81 209.81 0 0 0 21.4 19.76l4.67 3.77z m630.43-56.46L817 815.45l2.74-5.34a114.87 114.87 0 0 0 9.82-26.66l1.34-5.85 11.7 2.68-1.34 5.85a126.83 126.83 0 0 1-10.84 29.45z m-684.46-5.36l-2.49-5.46a123.06 123.06 0 0 1-9.39-30l-1-5.91 11.82-2.06 1 5.91a111 111 0 0 0 8.48 27l2.49 5.46z m687.53-73l-1.39-5.84a115.47 115.47 0 0 0-10-26.6l-2.77-5.32 10.64-5.54 2.77 5.32A127.48 127.48 0 0 1 841 733.92l1.39 5.84z m-686.59-5.39l-11.52-3.37 1.68-5.76a132 132 0 0 1 12.41-28.78l3-5.2 10.4 6-3 5.2a120 120 0 0 0-11.29 26.15zM794.72 676l-4.25-4.24a221.8 221.8 0 0 0-22-19.13l-4.8-3.63 7.28-9.54 4.77 3.64a233.82 233.82 0 0 1 23.23 20.17l4.25 4.24z m-611.8-4l-8.23-8.73 4.37-4.11a244.44 244.44 0 0 1 23.7-19.57l4.85-3.53 7.06 9.7-4.85 3.53a232.44 232.44 0 0 0-22.54 18.6z m549.45-42.67l-5.31-2.79c-8.45-4.45-17.42-8.71-26.66-12.67l-5.52-2.36 4.73-11 5.51 2.36c9.53 4.08 18.79 8.49 27.52 13.08l5.31 2.79z m-486-2.7L241 615.87l5.35-2.71c8.81-4.46 18.13-8.71 27.71-12.66l5.55-2.29 4.57 11.1-5.55 2.29c-9.29 3.83-18.33 8-26.86 12.27zM486.86 819.68A66.5 66.5 0 0 1 432.52 792c-39.77-54.71-97.41-137.71-146.17-222.4-60.73-105.48-91.52-186-91.52-239.47a292 292 0 0 1 584.07 0c0 53.42-30.79 134-91.52 239.47C638.61 654.29 581 737.29 541.2 792a66.5 66.5 0 0 1-54.34 27.68z m0-741.58c-139 0-252 113.06-252 252 0 31.85 15 95.79 86.18 219.51 47.89 83.17 104.66 164.92 143.86 218.84a27.19 27.19 0 0 0 44 0c39.2-53.93 96-135.67 143.86-218.84 71.18-123.7 86.13-187.61 86.13-219.48 0-138.98-113.06-252.04-252.03-252.04z" fill="#FF8ACA" p-id="4995"></path><path d="M486.86 304.68m-102.84 0a102.84 102.84 0 1 0 205.68 0 102.84 102.84 0 1 0-205.68 0Z" fill="#EFBFE5" p-id="4996"></path></svg>