<?xml version="1.0" standalone="no"?><!DOCTYPE svg PUBLIC "-//W3C//DTD SVG 1.1//EN" "http://www.w3.org/Graphics/SVG/1.1/DTD/svg11.dtd"><svg t="1659775353584" class="icon" viewBox="0 0 1024 1024" version="1.1" xmlns="http://www.w3.org/2000/svg" p-id="3004" xmlns:xlink="http://www.w3.org/1999/xlink" width="128" height="128"><defs><style type="text/css">@font-face { font-family: feedback-iconfont; src: url("//at.alicdn.com/t/font_1031158_u69w8yhxdu.woff2?t=1630033759944") format("woff2"), url("//at.alicdn.com/t/font_1031158_u69w8yhxdu.woff?t=1630033759944") format("woff"), url("//at.alicdn.com/t/font_1031158_u69w8yhxdu.ttf?t=1630033759944") format("truetype"); }
</style></defs><path d="M874 120H622c-3.3 0-6 2.7-6 6v56c0 3.3 2.7 6 6 6h160.4L583.1 387.3c-50-38.5-111-59.3-175.1-59.3-76.9 0-149.3 30-203.6 84.4S120 539.1 120 616s30 149.3 84.4 203.6C258.7 874 331.1 904 408 904s149.3-30 203.6-84.4C666 765.3 696 692.9 696 616c0-64.1-20.8-124.9-59.2-174.9L836 241.9V402c0 3.3 2.7 6 6 6h56c3.3 0 6-2.7 6-6V150c0-16.5-13.5-30-30-30zM408 828c-116.9 0-212-95.1-212-212s95.1-212 212-212 212 95.1 212 212-95.1 212-212 212z" p-id="3005"></path></svg>